<?xml version="1.0" encoding="utf-8"?>
<!-- Generator: Adobe Illustrator 22.1.0, SVG Export Plug-In . SVG Version: 6.00 Build 0)  -->
<svg version="1.1" id="Capa_1" xmlns="http://www.w3.org/2000/svg" xmlns:xlink="http://www.w3.org/1999/xlink" x="0px" y="0px"
	 viewBox="0 0 792 354.2" style="enable-background:new 0 0 792 354.2;" xml:space="preserve">
<style type="text/css">
	.st0{fill:#226BFA;}
	.st1{fill:#29D4A6;}
</style>
<g>
	<path class="st0" d="M373.7,254.1c-16.1,8.8-30.8,13.1-43.8,13.1c-13.1,0-24.3-1.2-33.6-3.7c-9.3-2.4-17.2-6.1-23.7-10.8
		c-13.2-9.7-19.8-23.6-19.8-42c0-16.4,8.1-30,24.2-40.9c17.5-11.8,41.3-17.7,71.3-17.7l6.8,0.2c1.4,0.1,2.9,0.2,4.6,0.3
		c1.7,0.1,3.2,0.2,4.6,0.4c-0.9-18.2-8.8-28.8-23.5-31.9c-4.9-1-10.1-1.5-15.6-1.5c-5.5,0-10.9,0.5-16.2,1.4
		c-5.3,1-10.4,2.2-15.4,3.8c-11,3.5-18.9,7.6-23.7,12.1l-0.5-0.3l-5.1-37.7c20.1-10.6,42.1-15.9,66-15.9c37.1,0,60.8,13.4,71.1,40.1
		c3.3,8.5,4.9,18.1,4.9,28.8v61.7c0,13.2,4.7,22.2,14,26.9l-30.9,28.3C382.9,265.5,377.7,260.6,373.7,254.1z M364.5,183.7
		c-3.1-0.6-6.3-0.9-9.6-0.9h-6.8c-25.1,0-41.1,5.6-47.9,16.7c-2,3.3-3.1,6.8-3.1,10.4c0,3.6,0.7,6.9,2,9.6c1.3,2.8,3.5,5.1,6.6,6.9
		c5.9,3.4,14.7,5.1,26.3,5.1s22.5-2.8,32.7-8.4c-0.1-1.2-0.2-2.6-0.2-3.9V183.7z"/>
	<path class="st0" d="M538.7,261.1v50.1c0,9.8,0.2,16.1,0.7,19.1h-42.5V86.5h41.8v11.1c13.8-9.7,26.9-14.5,39.6-14.5
		c12.6,0,23.8,1.8,33.6,5.3c9.8,3.5,18.4,9,25.7,16.4c16.3,16,24.4,38.9,24.4,68.6c0,19.7-4.6,37.2-13.8,52.7
		c-7.8,13.1-18.7,23.5-32.6,31.4c-12.3,6.9-25.6,10.4-39.9,10.4C561.4,267.7,549.1,265.5,538.7,261.1z M538.7,218.1
		c8.6,7.3,19.8,10.9,33.6,10.9c22.5,0,37.1-10.9,43.7-32.6c2.3-7.4,3.4-15.3,3.4-23.8c0-8.5-0.8-15.2-2.4-20.3
		c-1.6-5.1-3.7-9.4-6.2-13.1c-2.6-3.7-5.4-6.8-8.6-9.2c-3.2-2.4-6.4-4.4-9.7-5.9c-5.8-2.6-11.8-3.9-17.9-3.9
		c-6.1,0-12.5,1.4-19.1,4.3c-6.6,2.8-12.2,6.6-16.7,11.4V218.1z"/>
	<path class="st0" d="M772.1,245.6c0,9.8,0.2,16.1,0.7,19.1h-43.3V86.5h42.6V245.6z"/>
	<circle class="st1" cx="751.3" cy="42.6" r="21.8"/>
	<polygon class="st0" points="62,20.8 20.2,20.8 20.2,215 62,170.1 	"/>
	<polygon class="st1" points="139.9,86.5 62,170.1 20.2,215 20.2,264.7 62,223.9 94.4,189.5 123.4,157.2 190.6,86.5 	"/>
	<polygon class="st0" points="62,223.9 20.2,264.7 62,264.7 62,242.2 	"/>
	<polygon class="st0" points="123.4,157.2 94.4,189.5 145.9,264.8 200.2,264.8 	"/>
</g>
</svg>
